<svg width="1560" height="1378" viewBox="0 0 1560 1378" fill="none" xmlns="http://www.w3.org/2000/svg">
<path d="M0 159C11.0753 159.584 22.0499 160.572 33.0625 161.875C34.6042 162.055 36.1458 162.234 37.6875 162.414C53.7432 164.292 69.7861 166.237 85.7437 168.835C90.3586 169.584 94.9765 170.299 99.6027 170.976C112.79 172.909 125.925 175.132 139.062 177.375C140.818 177.674 140.818 177.674 142.609 177.98C166.436 182.045 190.148 186.255 213.727 191.602C219.073 192.807 224.432 193.9 229.812 194.938C256.286 200.099 282.971 206.293 308.776 214.161C314.537 215.907 320.354 217.392 326.188 218.875C336.706 221.564 347.012 224.765 357.328 228.14C360.099 229.032 362.879 229.886 365.664 230.734C434.541 251.854 501.822 277.298 567 308C567.981 308.462 568.962 308.923 569.973 309.399C596.092 321.727 622.163 334.394 647.36 348.524C650.2 350.112 653.05 351.68 655.902 353.246C670.782 361.454 685.336 370.133 699.805 379.038C702.623 380.768 705.448 382.485 708.277 384.195C723.589 393.497 738.423 403.522 753.29 413.512C755.637 415.088 757.988 416.658 760.345 418.218C766.344 422.192 772.25 426.258 778.062 430.5C778.841 431.065 779.619 431.631 780.421 432.214C781.947 433.323 783.473 434.433 784.998 435.544C786.614 436.719 788.236 437.886 789.859 439.051C798.91 445.55 807.724 452.37 816.571 459.142C818.606 460.698 820.644 462.251 822.684 463.801C830.647 469.876 838.426 476.163 846.175 482.507C847.782 483.822 849.393 485.132 851.004 486.441C856.447 490.87 861.824 495.371 867.167 499.919C870.549 502.792 873.975 505.599 877.438 508.375C882.452 512.451 887.18 516.789 891.879 521.22C894.856 524.027 897.868 526.777 900.957 529.461C904.893 532.884 908.708 536.419 912.5 540C913.74 541.167 914.979 542.333 916.219 543.5C916.93 544.172 917.642 544.843 918.375 545.535C920.41 547.446 922.452 549.349 924.498 551.248C933.822 559.918 942.933 568.775 951.922 577.791C954.089 579.964 956.262 582.132 958.436 584.299C959.844 585.708 961.252 587.118 962.66 588.527C963.296 589.161 963.931 589.794 964.586 590.447C968.369 594.249 971.958 598.171 975.465 602.229C977.184 604.213 978.955 606.138 980.762 608.043C981.399 608.718 982.037 609.392 982.694 610.087C983.352 610.78 984.01 611.473 984.688 612.188C992.721 620.663 992.721 620.663 996.25 624.605C1008.64 638.431 1022.4 651.771 1041.5 654.5C1055.76 652.463 1065.59 640.044 1073.87 629.27C1081.5 619.045 1088.11 608.098 1094.78 597.232C1109.44 573.333 1125.27 549.918 1144 529C1144.86 528.033 1145.71 527.066 1146.59 526.07C1157.88 513.524 1169.65 501.357 1183 491C1184.16 490.052 1185.32 489.102 1186.48 488.148C1194.97 481.18 1203.71 474.859 1213 469C1213.59 468.628 1214.17 468.256 1214.78 467.873C1266.2 435.532 1324.31 420.729 1384.81 420.812C1385.63 420.813 1386.45 420.814 1387.29 420.814C1438.3 420.915 1493.19 425.239 1541.94 441C1542.64 441.225 1543.35 441.45 1544.07 441.682C1549.34 443.491 1555.01 446.005 1559 450C1559.4 453.544 1559.39 455.405 1557.4 458.418C1554.65 461.375 1551.64 463.435 1548.25 465.562C1536.6 473.114 1525.51 481.254 1515.38 490.773C1513.27 492.748 1511.1 494.595 1508.88 496.438C1503.93 500.747 1500.03 505.852 1496 511C1495.21 511.978 1494.41 512.957 1493.59 513.965C1464.84 550.041 1451 595.187 1439.75 639.207C1438.7 643.318 1437.62 647.42 1436.5 651.512C1431.71 669.095 1428.11 686.925 1424.46 704.773C1423.79 708.015 1423.11 711.256 1422.44 714.496C1419.31 729.656 1416.61 744.87 1414 760.125C1411.07 777.187 1407.91 794.132 1404 811C1403.58 812.814 1403.58 812.814 1403.16 814.664C1399.9 828.853 1396.39 842.859 1391.76 856.666C1390.84 859.494 1389.97 862.338 1389.11 865.184C1372.93 917.987 1350.3 969.541 1322 1017C1321.5 1017.84 1321 1018.69 1320.48 1019.56C1293.88 1063.94 1262.76 1105.62 1227.44 1143.44C1226.06 1144.94 1224.69 1146.45 1223.32 1147.96C1216.83 1155.13 1210.08 1162.03 1203.25 1168.88C1202.36 1169.77 1201.48 1170.66 1200.56 1171.58C1196.1 1176.02 1191.59 1180.33 1186.81 1184.43C1184.03 1186.84 1181.37 1189.36 1178.69 1191.88C1173.87 1196.35 1168.93 1200.61 1163.8 1204.73C1161.26 1206.79 1158.76 1208.9 1156.27 1211.03C1149.37 1216.94 1142.27 1222.56 1135 1228C1134.31 1228.52 1133.61 1229.04 1132.9 1229.57C1114.75 1243.13 1096.31 1256.14 1077 1268C1076.09 1268.56 1075.19 1269.13 1074.25 1269.71C1015.85 1305.85 951.745 1333.88 885.282 1351.38C883.498 1351.86 881.72 1352.38 879.944 1352.9C871.161 1355.48 862.322 1357.59 853.375 1359.5C851.962 1359.8 850.548 1360.11 849.135 1360.41C845.092 1361.29 841.046 1362.14 837 1363C835.428 1363.33 835.428 1363.33 833.825 1363.67C824.723 1365.59 815.663 1367.32 806.422 1368.44C802.902 1368.87 799.398 1369.38 795.891 1369.9C776.313 1372.79 756.735 1374.62 737 1376C735.469 1376.11 735.469 1376.11 733.906 1376.22C701.49 1378.44 668.347 1377.89 636 1375C635.279 1374.94 634.558 1374.87 633.815 1374.81C601.234 1371.94 568.907 1367.25 537 1360C535.692 1359.71 534.384 1359.41 533.076 1359.12C501.678 1352.03 471.324 1342.78 441 1332C440.226 1331.73 439.452 1331.45 438.655 1331.17C436.402 1330.36 434.153 1329.54 431.906 1328.72C431.223 1328.48 430.539 1328.23 429.835 1327.98C425.116 1326.23 425.116 1326.23 424 1324C425.824 1323.84 425.824 1323.84 427.685 1323.68C439.78 1322.57 451.674 1320.9 463.625 1318.75C464.487 1318.6 465.349 1318.44 466.237 1318.29C487.848 1314.44 509.095 1309.75 530 1303C531.283 1302.59 532.567 1302.18 533.851 1301.77C601.084 1280.33 663.822 1248.96 720 1206C720.963 1205.26 720.963 1205.26 721.946 1204.51C729.443 1198.76 736.717 1192.77 743.898 1186.63C746.824 1184.13 749.814 1181.72 752.812 1179.31C756.741 1176.12 760.371 1172.79 763.855 1169.12C765.66 1167.34 767.495 1165.71 769.422 1164.07C774.979 1159.24 780.135 1154.01 785.327 1148.8C787.059 1147.07 788.796 1145.33 790.533 1143.6C796.238 1137.9 801.768 1132.14 807 1126C808.62 1124.22 810.244 1122.45 811.875 1120.69C815.969 1116.2 819.855 1111.59 823.668 1106.86C825.705 1104.36 827.783 1101.91 829.885 1099.46C836.372 1091.91 842.443 1084.07 848.42 1076.1C849.444 1074.74 850.471 1073.38 851.502 1072.02C871.683 1046.08 871.683 1046.08 879.34 1015.29C878.793 1011.6 877.558 1009.69 875 1007C865.267 1000.5 854.399 1000.63 843.129 1000.69C842.362 1000.69 841.596 1000.69 840.806 1000.69C825.949 1000.73 811.297 1001.87 796.524 1003.35C770.51 1005.95 744.602 1007.63 718.453 1007.62C716.421 1007.62 714.389 1007.63 712.357 1007.64C687.99 1007.72 663.819 1005.51 640.138 999.534C637.833 998.958 635.521 998.419 633.207 997.883C573.473 983.819 521.277 950.418 476.496 909.277C474.276 907.252 472.026 905.274 469.75 903.312C466.601 900.58 463.671 897.692 460.75 894.719C459.059 893.058 457.31 891.529 455.5 890C446.587 882.308 438.13 873.747 430.535 864.754C428.774 862.742 426.905 860.876 425 859C421.851 855.893 418.92 852.675 416.039 849.32C413.964 846.959 411.835 844.66 409.69 842.363C404.623 836.937 399.796 831.405 395.145 825.613C393.001 823.002 390.776 820.496 388.5 818C384.635 813.753 380.986 809.37 377.375 804.906C375.283 802.346 373.158 799.823 371.011 797.31C361.246 785.879 352.138 773.933 343 762C343.33 761.34 343.66 760.68 344 760C346.502 759.21 346.502 759.21 349.852 758.449C351.083 758.166 352.314 757.882 353.583 757.59C354.93 757.288 356.278 756.988 357.625 756.688C359.009 756.374 360.393 756.059 361.776 755.744C364.56 755.113 367.346 754.487 370.132 753.865C373.395 753.135 376.655 752.392 379.914 751.641C428.457 740.586 479.203 733.259 528.971 731.29C531.897 731.17 534.198 730.934 537 730C536.334 729.835 535.668 729.67 534.982 729.5C516.771 724.96 498.851 719.805 481 714C479.135 713.397 479.135 713.397 477.233 712.783C443.855 701.947 411.558 688.311 380 673C378.997 672.517 377.995 672.034 376.962 671.537C362.633 664.617 348.75 657.004 335 649C334.136 648.499 333.273 647.997 332.383 647.48C319.248 639.822 306.544 631.588 294 623C293.246 622.484 292.492 621.969 291.715 621.438C272.412 608.178 254.096 593.652 236.949 577.703C234.735 575.65 232.467 573.671 230.18 571.699C225.747 567.834 221.584 563.731 217.438 559.562C216.721 558.85 216.005 558.138 215.268 557.404C210.639 552.767 206.256 547.98 202 543C201.528 542.455 201.056 541.91 200.569 541.348C190.937 530.22 182.298 518.545 173.938 506.438C173.257 505.46 172.577 504.483 171.876 503.477C170.93 502.094 170.93 502.094 169.965 500.684C169.108 499.439 169.108 499.439 168.234 498.17C167 496 167 496 167 493C171.305 491.57 175.641 490.257 180 489C180.703 488.797 181.405 488.594 182.129 488.384C194.095 485.021 206.116 483.172 218.438 481.75C219.155 481.667 219.872 481.584 220.611 481.499C225.404 480.953 230.199 480.463 235 480C236.065 479.893 237.131 479.786 238.228 479.677C250.516 478.614 262.864 478.805 275.188 478.812C276.416 478.812 277.644 478.811 278.91 478.81C297.236 478.811 315.498 479.23 333.794 480.288C345.209 480.942 356.566 481.109 368 481C367.114 480.477 366.229 479.954 365.316 479.415C358.235 475.229 351.157 471.036 344.086 466.832C343.405 466.428 342.723 466.023 342.021 465.607C335.989 462.017 330.017 458.335 324.09 454.574C319.059 451.392 313.977 448.291 308.903 445.178C298.301 438.672 287.749 432.096 277.249 425.427C274.184 423.482 271.113 421.546 268.042 419.61C264.026 417.077 260.013 414.539 256 412C255.098 411.43 254.196 410.859 253.266 410.271C242.491 403.454 231.761 396.588 221.184 389.465C218.564 387.707 215.937 385.961 213.309 384.215C201.806 376.571 190.328 368.9 179 361C178.335 360.537 177.67 360.074 176.985 359.597C154.647 344.015 132.814 327.74 111.769 310.449C110.166 309.136 108.554 307.835 106.941 306.535C101.387 302.052 96.044 297.398 90.8008 292.555C89.337 291.22 87.8688 289.888 86.3606 288.604C80.0539 283.225 74.2121 277.398 68.3552 271.541C66.5749 269.762 64.7867 267.992 62.998 266.223C56.198 259.456 49.9389 252.544 44 245C42.9771 243.767 41.9503 242.538 40.918 241.312C33.004 231.775 26.3143 221.655 20 211C19.6133 210.351 19.2266 209.701 18.8281 209.032C9.71282 193.502 3.88778 176.523 0 159Z" fill="black"/>
<path d="M584 0C590.187 1.90708 595.956 4.24155 601.758 7.10547C602.571 7.50171 603.385 7.89796 604.223 8.30621C606.86 9.5937 609.493 10.89 612.125 12.1875C613.965 13.0906 615.806 13.9937 617.646 14.8967C640.463 26.1172 663.095 37.6095 685.116 50.3374C688.188 52.1083 691.269 53.8616 694.352 55.6133C715.632 67.7405 736.242 80.7452 756.625 94.3125C757.386 94.8186 758.147 95.3247 758.931 95.8462C768.754 102.386 778.445 109.076 788 116C788.862 116.621 789.723 117.242 790.611 117.883C801.119 125.481 811.328 133.364 821.324 141.624C823.568 143.466 825.845 145.265 828.125 147.062C837.774 154.769 847.046 162.921 856.098 171.316C857.968 173.046 859.85 174.763 861.746 176.465C868.289 182.354 874.578 188.473 880.812 194.688C882.013 195.881 882.013 195.881 883.239 197.1C888.032 201.906 892.584 206.847 897 212C898.057 213.203 899.116 214.405 900.176 215.605C916.258 233.926 930.426 253.769 944 274C944.554 274.825 945.108 275.651 945.678 276.501C959.823 297.678 972.993 319.538 985 342C985.517 342.968 986.035 343.936 986.568 344.933C1008.03 385.29 1026.61 427.487 1039.27 471.479C1039.92 473.727 1040.6 475.963 1041.29 478.199C1050.59 508.91 1064.79 557.344 1051 588C1048.57 590.898 1048.57 590.898 1046 593C1041.09 593.179 1038.14 591.904 1034.53 588.582C1032.18 586.151 1029.98 583.61 1027.79 581.039C1026.09 579.105 1024.34 577.298 1022.5 575.5C1020.2 573.243 1018.05 570.929 1015.96 568.471C1011.25 563.06 1006.17 558.027 1001.1 552.965C1000.05 551.917 999.003 550.869 997.957 549.821C995.774 547.637 993.589 545.454 991.404 543.273C988.622 540.497 985.845 537.717 983.07 534.936C980.912 532.774 978.752 530.616 976.591 528.457C975.567 527.434 974.544 526.41 973.521 525.385C967.854 519.708 962.094 514.219 956 509C954.657 507.77 953.322 506.533 952 505.281C951.34 504.659 950.68 504.036 950 503.395C948.667 502.132 947.333 500.868 946 499.605C941.426 495.291 936.756 491.112 932 487C930.81 485.965 929.62 484.93 928.43 483.895C925.271 481.154 922.108 478.418 918.945 475.683C917.098 474.084 915.254 472.482 913.41 470.879C907.128 465.435 900.75 460.17 894.182 455.076C890.178 451.961 886.288 448.739 882.438 445.438C876.644 440.48 870.667 435.811 864.59 431.208C862.049 429.278 859.526 427.325 857 425.375C854.668 423.582 852.334 421.791 850 420C848.815 419.09 848.815 419.09 847.606 418.161C837.454 410.37 827.274 402.657 816.813 395.287C813.252 392.76 809.723 390.188 806.188 387.625C794.211 378.961 782.112 370.474 770 362C767.483 360.238 764.967 358.476 762.45 356.714C760.841 355.588 759.231 354.464 757.62 353.341C720.5 327.461 694.108 295.421 672 256C671.512 255.136 671.024 254.273 670.521 253.383C639.99 199.088 618.999 138.735 602.754 78.7334C602.052 76.1898 601.316 73.6604 600.559 71.1328C595.652 54.698 591.859 37.9855 587.995 21.2812C587.362 18.5492 586.72 15.8202 586.064 13.0938C585.789 11.9388 585.514 10.7838 585.23 9.59375C584.991 8.60053 584.751 7.6073 584.505 6.58398C584 4 584 4 584 0Z" fill="black"/>
<path d="M1362.42 496.461C1371.91 502.118 1378.05 510.297 1381 521C1382.2 532.137 1380.73 541.377 1374.17 550.567C1367.91 558.055 1360.82 563.035 1350.94 564.254C1339.18 565.092 1330.62 563.639 1320.93 556.465C1313.71 550.097 1309.61 540.531 1308.73 531.09C1308.39 520.639 1310.94 512.449 1317.44 504.188C1329.59 491.767 1346.83 488.829 1362.42 496.461Z" fill="#FEFEFD"/>
</svg>
